<svg xmlns="http://www.w3.org/2000/svg" viewBox="0 0 533.93 606.76"><defs><style>.a{fill:#b23520;}.b{fill:#04005c;}.c{fill:#fefefe;}</style></defs><title>national</title><path class="a" d="M250.58,91.33c12.46-5,21.19-13,30-19.86,11.66-9,23.42-18,34.42-27.86,4.24-3.79,8.15-8.22,12.16-12.41,2-2.12,3.38-3,5.82-.3C345,44,358.26,55.76,371.65,67.4c10.54,9.16,23.33,14.27,35.59,20.51,25.61,13,51.76,8.5,77.67,3C501.4,87.4,517,80.43,532,72.58c4.57-2.39,7.11-.15,10,3.09,7,8,12.45,17.07,19.78,24.79,10.52,11.1,20.41,22.8,30.77,34.06,4.36,4.73,4.41,10.2,4.16,16-0.28,6.72-1,13.53-.22,20.16,0.89,8-4.54,12.16-8.76,17.13-6.85,8.08-13.12,16.49-17.63,26.17-5.18,11.12-11,22.19-13,34.24-1.86,10.93-3.26,22.23,1.64,33.27,2.63,5.92,3.21,12.72,5.26,18.94,3.49,10.61,7.48,21,11.11,31.62,5.35,15.61,11.58,30.91,16,46.86s3.52,32.44,2.47,48.72c-1,15.65-3.37,31.2-9.26,45.85-7.7,19.19-19.6,35.59-34.61,49.81-16.71,15.84-34.58,30.07-55,41-14.65,7.83-30.49,12.48-46.23,17.46-6.08,1.92-12.4,2.86-18.37,5-9.74,3.41-19.59,6.47-29.25,10.17-9.31,3.57-18.53,7.26-27.53,11.49-13.88,6.52-27,14.27-38.23,24.85-4.27,4-8.75,3.49-13.89-.91-6.21-5.32-12.29-10.8-18.75-15.8-10.48-8.11-22.9-12.38-35-17.51-18.1-7.69-37.19-11.71-55.87-17.27-15.23-4.53-29.45-11.66-43.82-18.45-14.14-6.68-27.7-14.13-39.75-24-9.87-8.27-19.85-16.44-26.82-27.52-1.39-2.22-4-3.63-5.56-5.78C78.94,482.8,68.2,457.4,67.12,428.47c-0.17-4.53-.4-9-0.58-13,0.4-18.34,2.28-35.94,7.48-53,4.14-13.58,10.09-26.5,15.37-39.66,3.43-8.55,5.19-17.75,8.52-26.35,4-10.33,7.65-20.62,7.88-31.83,0.22-10.73-2.63-20.83-5.89-30.83a111.24,111.24,0,0,0-24.72-42,72,72,0,0,0-8.26-7.08c-2.82-2.23-3.52-4.35-3.76-7.64C62.45,167,63.16,157,63,147a17.57,17.57,0,0,1,4.28-11.47Q85,113.19,102.82,91.06a114.77,114.77,0,0,1,17.56-17.6,8.2,8.2,0,0,1,8.44-.75c17.51,7.49,63.37,28.5,84.93,26M457.26,243.12V243h11q31.83,0,63.65-.09c2.1,0,4.85.25,5.84-2.27,1.15-2.94,1.7-6.11,2.6-9.15,4.76-16,11.17-31.32,22.17-44.19,7.3-8.54,15.94-16.26,14.26-29.13a6.06,6.06,0,0,0,.13-0.72c-0.46-4.16,2.31-9.24-.89-12.39A398,398,0,0,1,535.91,99.8c-1.24-1.66-2.41-2.07-4.3-.88-21,13.23-44.6,18.11-68.65,20-19.72,1.53-39.26-1.86-58-8.83s-35.16-17.7-50.64-30c-7.06-5.59-14.24-11.3-19.27-19-1.91-2.93-3.55-2.2-5.36-.07C319.38,73.11,307.1,82.8,293.87,91.46c-25.67,16.82-53.72,25.79-84.43,25.34-15.28-.22-30.24-3.37-45.18-6.76a128.22,128.22,0,0,1-34.41-13c-2.68-1.49-4.12-1.33-5.85.79-5.33,6.53-10.59,13.11-16,19.54-7.35,8.68-13.83,18-21.46,26.52-2.6,2.89-6.08,5.91-6,10.5s0.44,9.05.4,13.58a6.24,6.24,0,0,0,3.23,6,84.57,84.57,0,0,1,16.31,13.56c13.49,14.82,21.66,32.44,26.43,51.73,0.64,2.57,1.75,3.16,4.26,3.16,46.1,0,92.21-.9,138.32.33,20.61,0.55,41.24.29,61.86,0.3,17.82,0,35.63.76,53.48,0.24C408.92,242.6,433.1,243.12,457.26,243.12Zm-125.73,21v0.16H312c-1.15,0-2.43-.42-2.33,1.72,0.72,15.76-.29,31.53-0.49,47.28-0.3,23.51.59,47,.58,70.48,0,20.6.7,41.2,0.88,61.8,0.15,17.14,0,34.29,0,51.43q-0.26,49.39-.7,98.79a5,5,0,0,0,2.56,4.73c5.18,3.48,10.5,6.81,14.85,11.37,1.51,1.58,2.83,1.16,4.09,0a81.59,81.59,0,0,1,17.63-13,3.52,3.52,0,0,0,2-2.82c0.72-6.4,1.68-12.74,1.43-19.26C352.1,565,352,553.27,352,541.5c0.09-33.32.37-66.64,0.49-100,0.07-18.49-.2-37,0.6-55.45,0.66-15.15-.7-30.37-0.29-45.54,0.6-22.06.18-44.1-.17-66.15,0-2.3-1.13-4.6.92-7,0.9-1,.3-3.43-2.59-3.35C344.53,264.29,338,264.16,331.53,264.16Zm-89.1.12V264.2c-6.5,0-13,.1-19.49-0.06-2.09,0-2.82.43-2.69,2.6,0.36,6.09.72,12.2,0.76,18.3q0.24,40.78.26,81.56,0,30.78.68,61.54c0.41,19.33-.18,38.69,0,58,0.23,25.47.81,50.94,1.17,76.42,0,2.15.79,4,2.84,3.83,2.64-.2,4.62,1.25,6.92,1.78,10.18,2.37,20.59,3.83,30.34,7.9,2.1,0.88,3,0,2.93-2.5-0.26-14.19,0-28.37-.37-42.57-0.48-18.44,0-36.91-.12-55.37-0.13-25.82-.6-51.64-0.55-77.46q0.07-35.93-.3-71.85c-0.23-19.69.3-39.4-.28-59.1-0.07-2.45-.57-3.1-3-3-6.33.16-12.71,0.06-19.08,0.06h0Zm155.1,274h-1.4c0,11.89.11,23.78-.07,35.66,0,3.61,1,4.23,4.19,2.92a214.06,214.06,0,0,1,35.47-10.75c1.74-.38,2.51-1.12,2.58-2.91,0.25-6.6,1-13.21.83-19.8-0.39-20.45,1-40.89.35-61.35-0.42-14.45.61-28.94,0.81-43.41,0.16-11.61-.37-23.23.15-34.82,1.4-30.82.58-61.66,1.28-92.49,0.31-13.42-.49-26.85.43-40.29,0.11-1.57,2.45-7-3.18-7-12.86-.07-25.72,0-38.58-0.12-1.4,0-2.1.13-1.76,1.76,0.84,4.1-.2,8.18-0.24,12.27-0.36,33.09-.75,66.18-0.83,99.26C397.43,430.95,397.53,484.64,397.53,538.32ZM133.27,511.8c1.14,3.55-1.63,7.75,2.42,10.58,12.39,8.66,25,16.92,38.7,23.44,4,1.89,4.66,1.61,4.59-2.82q-0.42-29-1.21-57.93c-0.26-10.17,0-20.49,0-30.72-0.14-32.3-.92-64.59-1.48-96.89-0.52-30.25-1.12-60.5-1.56-90.75,0-2.14-.52-2.52-2.57-2.53-12.61-.07-25.23-0.15-37.84-0.61-3.72-.14-4.6,1.11-4.45,4.45,0.3,6.7.43,13.41,0.54,20.12,0.26,15.43-.1,30.86.57,46.3,1.72,39.29.41,78.63,2.16,117.93C134,472.21,133.27,492.08,133.27,511.8Zm377-248v0.37c-6.25,0-12.51.1-18.76,0-2.4-.06-3.41.34-3.42,3.13-0.1,38.85-2.5,77.65-2.09,116.51,0.18,17-.57,34.09-0.77,51.14-0.39,34.07-.68,68.15-1.08,102.22,0,2.25.72,4.82-.91,6.7-0.76.88-.92,1.17-0.21,1.94s1.18,1.43,2.43.7c2.74-1.6,5.75-2.77,8.37-4.53C504.6,534.75,515.27,527.35,526,520a3.88,3.88,0,0,0,1.77-3.35c1.19-19.09.7-38.21,0.58-57.3-0.16-24.28.6-48.54,1.19-72.79,0.58-24-.12-48,1.13-72,0.84-16,.81-32.1,1.31-48.15,0.07-2.16-.49-2.73-2.58-2.69-6.35.15-12.72,0-19.09,0h0Z" transform="translate(-62.84 -29.22)"/><path class="b" d="M457.26,243.12c-24.16,0-48.34-.52-72.48.17-17.85.51-35.65-.24-53.48-0.24-20.62,0-41.25.25-61.86-.3-46.11-1.23-92.21-.34-138.32-0.33-2.51,0-3.62-.59-4.26-3.16-4.77-19.29-12.94-36.91-26.43-51.73A84.57,84.57,0,0,0,84.08,174a6.24,6.24,0,0,1-3.23-6c0-4.52-.37-9.05-0.4-13.58s3.44-7.59,6.08-10.46c7.64-8.47,14.11-17.84,21.46-26.52,5.45-6.43,10.71-13,16-19.54,1.73-2.12,3.18-2.29,5.85-.79a128.21,128.21,0,0,0,34.41,13c14.94,3.39,29.9,6.54,45.18,6.76,30.71,0.45,58.76-8.53,84.44-25.35,13.23-8.67,25.51-18.35,35.79-30.43,1.81-2.13,3.45-2.86,5.36.07,5,7.72,12.21,13.42,19.27,19,15.48,12.26,31.94,23,50.64,30s38.29,10.36,58,8.83c24-1.87,47.7-6.75,68.65-20,1.89-1.19,3.06-.78,4.3.88A398,398,0,0,0,576,145.12c3.2,3.15.43,8.23,0.89,12.39a6.06,6.06,0,0,0-.13.72c1.68,12.87-7,20.58-14.26,29.13-11,12.86-17.41,28.14-22.17,44.19-0.9,3-1.44,6.21-2.6,9.15a3.15,3.15,0,0,1-1.4,1.66c-1.27.72-3,.61-4.44,0.61-21.22.11-42.43,0.08-63.65,0.09h-11v0.06ZM283,229.29c3.9-4.32,9.07-6.93,13.74-10.23,1.54-1.09,2.69.2,3.53,1,3.57,3.45,8,5.46,12.31,7.72a6.75,6.75,0,0,0,2,.36,7.26,7.26,0,0,0,.09-2.06c-1-3.9-1.94-7.81-3.06-11.66-0.67-2.3-.18-3.78,1.87-5.26,4-2.84,7.66-6,11.46-9.11,0.45-.37,1.21-0.91,1.15-1.26-0.17-1.07-1.18-.35-1.79-0.55-3.24-1.07-6.55-.55-9.73,0-5.46,1-8.63-.43-9.53-6.41-0.42-2.79-2.23-5.37-3.46-8-0.57-1.23-1.11-1-1.56.14-3.68,9-7.93,17.36-20,15.53a14.15,14.15,0,0,0-1.46.16c-3.41-.12-2.68,1.28-1.06,2.92,2.92,3,5.92,5.83,8.82,8.8,0.87,0.89,1.34,1.36.67,3.31-1.62,4.69-3.71,9.41-3.92,14.54l-0.26-.08Zm23.81-61.18v3.29c0.77-.33,1.56-0.61,2.29-1q8.5-4.67,17-9.39c1.78-1,3.38-2.11,5.62-.94,6.46,3.38,13.26,6.11,19.31,10.26,0.64,0.44,1.29,1.61,2.09.86,0.41-.38.17-1.64,0-2.44-1.69-7-3.44-14-5.16-21-0.32-1.29-.89-2.66.31-3.8,5.09-4.87,10.17-9.75,15.32-14.56,0.9-.84,2.72-1.51,2.32-2.59-0.3-.81-2.25-1.3-3.51-1.42-6.08-.55-12.17-1.09-18.27-1.3-2.84-.1-4-1.29-4.81-3.87-2.09-6.91-4.41-13.74-6.68-20.59a8.67,8.67,0,0,0-1.11-1.7,7.61,7.61,0,0,0-1.4,1.53c-2.6,5.08-5.3,10.11-7.55,15.35-2.18,5.06-5.2,8.16-11.12,8.73-5.29.51-10.47,2.26-15.69,3.49-2,.47-3.8.91-1.13,3.21,5.14,4.43,10.12,9,15.24,13.5a3.89,3.89,0,0,1,1.5,4.39C309.68,155,308.19,162,306.81,168.11Zm-43.5,33c-0.16-1.18-1.08-.89-1.72-0.92-3.3-.15-6.64-0.59-9.9-0.24-2.88.3-3.84-.87-4.67-3.28-1.26-3.69-2.9-7.26-4.38-10.87-0.66-1.62-1.34-1.89-2.23-.1-1.74,3.5-3.59,7-5.32,10.46-0.62,1.25-1.09,2.21-2.84,2.31-3.66.2-7.31,0.72-10.94,1.23-1,.14-2.53-0.56-2.9.66-0.15.5,1.3,1.57,2.11,2.28,10.17,9,10.17,9,5.3,20.42-0.55,1.3-1.7,2.46-1.17,4.08,1.3-.6,2.63-1.14,3.88-1.83,6.67-3.66,13.1-9.18,20.52-1,2,2.17,5,3.32,7.61,4.95,0.71-3.29-.9-6.17-1.83-9.11-3.29-10.44-3.21-10.91,5.9-17.13,0.61-.41,1.26-0.76,1.86-1.18a4.77,4.77,0,0,0,.72-0.72h0Zm138.64-1.76c-2.21-.06-5.28-0.46-6.11,1.22-0.6,1.22,2.65,2.59,4.16,3.91,0.83,0.72,1.74,1.35,2.61,2,7,5.43,6.93,5.39,4,13.94-0.87,2.59-2.69,5-2.32,7.93,2.44-1.33,5-2.54,7.32-4,9-5.58,9-5.6,17.55.42a27.79,27.79,0,0,0,3.49,1.79c-0.06-1.29-.07-2.58-0.2-3.86a11.57,11.57,0,0,0-.55-2.51c-2.23-6.56-1.23-11.52,6.21-13.9,1.53-.49,4.24-2,3.74-3.41s-3.4-1.06-5.3-1.24c-1.22-.12-3,0.08-3.53-0.62-1.7-2.22-5.89,1.11-6-2.11-0.17-5.34-3.92-8.79-5.54-13.29a5.45,5.45,0,0,0-1.07-1.35,6.58,6.58,0,0,0-1,1.34c-0.43,1-.65,2.09-1.07,3.1-4.55,11-4.56,11-16.44,10.65h0ZM504.43,170.7c-0.58-2.26-1-4-1.48-5.73-2-7.28-3.88-14.42,4.88-19a6.51,6.51,0,0,0,3.48-4.07,35,35,0,0,0-6-.26c-7.93,1-8.35.74-10.61-6.95a14.56,14.56,0,0,0-1.75-3.6c-1.15-1.81-1.88-4-3.93-5.11-0.6,1.94-1.28,3.87-1.79,5.84-2.58,10.08-2.57,10-10.35,10.47-3.11.18-6.21,0.73-9.31,1.12,1.46,3.24,4.47,5.14,7.14,7,3.29,2.22,3.69,4.56,2.63,7.93-1.19,3.79-2.13,7.66-3.4,12.3,3.24-2.13,5.64-4,8.27-5.39,4.27-2.3,8.39-6.17,13.33-.51C497.71,167.09,501.08,168.48,504.43,170.7ZM361.82,182.27c-2.93,5.46-3.19,10.9-5.9,15.5-1,1.7-1.76,2.2-3.55,2.16-4.4-.11-8.8,0-13.2,0a9.37,9.37,0,0,0-2,.46,8.22,8.22,0,0,0,1.4,1.5c8.48,5.44,13.43,12.1,8,22.5a5.45,5.45,0,0,0-.15,2.05c0.65-.28,1.33-0.51,2-0.84,3.56-1.9,7.12-3.79,10.65-5.74,1.15-.63,2.18-1.08,3.34,0,2.25,2,4.9,3.51,7.1,5.7,1.6,1.6,4.23,2.17,6.4,3.2,0.34-2-.86-3.7-1.43-5.51a15.2,15.2,0,0,0-1.31-3.42c-3.47-5.64-1.93-9.83,3.38-13.31a56,56,0,0,0,6-5.24,71.61,71.61,0,0,0-7.82-.94c-6.24-.09-10-2.59-10.58-9.24C363.9,188.31,362.75,185.65,361.82,182.27ZM167.39,227.58a59.85,59.85,0,0,0,5.87-4.17c6.19-5.79,8.21-6,15-.9,2.79,2.1,5.42,4.43,8.86,5.48a30.51,30.51,0,0,0-2.24-10.52c-2.08-4.72-2-8.73,3.42-11.49,2.67-1.36,4.86-3.67,7.25-5.58,0.54-.44,1.49-1.16,1.38-1.47-0.33-1-1.4-.67-2.22-0.7-4.64-.17-9.27-0.4-13.91-0.47-1.61,0-2.47-.53-2.86-2.13-0.69-2.84-1.51-5.66-2.34-8.47-0.36-1.21-.2-2.65-1.41-3.53a13.29,13.29,0,0,0-1.63,3.1c-2.27,10.22-8.59,14.14-18.75,12.31-0.77-.14-2.07-0.1-2.33.33-0.6,1,.75,1.3,1.27,1.85a44.86,44.86,0,0,0,6,5.89c4.44,3.18,3.81,7,2.11,11.22C169.76,221,168.81,223.8,167.39,227.58Zm66.63-56a2,2,0,0,0,1-2.63l0-.09c-1.26-4.05-1-8.59-3.42-12.22-1.68-2.57-.34-3.73,1.4-5,2-1.52,4.19-2.88,6.11-4.53,1.4-1.21,3.64-1.63,4-3.91-1.77-.08-3.56-0.3-5.32-0.21-9.43.47-9.42,0.5-12.32-8.19-0.35-1-.84-2-1.16-3.08-0.86-2.71-2.53-2.3-3.3-.35-3.44,8.67-9.66,12.32-18.83,11.32-1-.11-2.79.19-2.93,0.67-0.38,1.33,1.14,1.95,2,2.71,5.44,4.72,11.58,9.09,6.16,17.7-1,1.65-1.15,3.89-1.69,5.86,2.34,0,3.73-1.92,5.67-2.73a11.56,11.56,0,0,0,3.18-1.81c4.33-3.8,8.16-3.52,12.12.75,2,2.21,4.77,3.79,7.34,5.78v0Zm-77-5.08c2.34-1.3,4.18-2.23,5.93-3.3,5-3.08,9.92-7.28,14.74.34,0.81,1.28,2.33,2.14,3.62,3.06,1,0.7,2.32,1.87,3.11,1.62,1.61-.52.38-2.15,0.27-3.21-0.29-3.06-.47-6.08-1.79-9.06-1.45-3.26-1.86-6.68,3-8.33,2.34-.8,4.3-2.73,6.38-4.24a6.86,6.86,0,0,0,1.22-1.64,9.28,9.28,0,0,0-1.87-.74c-4-.65-7.93-1.4-11.92-1.79-2.1-.2-3-1-3.26-3s-0.75-4.09-.95-6.16c-0.25-2.63-.4-7.14-1.93-7.17-3.36-.06-2.53,4.25-3.8,6.57-1.59,2.91-1.1,8.22-4.65,8.46A37.46,37.46,0,0,0,153.73,140c-0.72.28-2.23,0-2.3,0.26-0.3,1.17,1,1.58,1.67,2.06,7.7,5.1,11,11.33,5.45,20a23.18,23.18,0,0,0-1.54,4.18v0Zm243.82,5.56c-0.94-6.39-1.52-11-2.32-15.56a3.48,3.48,0,0,1,1.12-3.59c3.65-3.19,7.33-6.35,11-9.55a6.82,6.82,0,0,0,1-1.39,5.87,5.87,0,0,0-1.61-.42c-4,.13-8.06.2-12.07,0.55-1.73.15-3-.49-2.74-2,0.62-3.22-2.31-5.07-2.54-8-0.15-1.85-1.32-3.64-2.12-5.42a10.56,10.56,0,0,0-1.24-1.74,9.71,9.71,0,0,0-1.12,1.71c-1.42,3.62-2.94,7.22-4.12,10.92-0.71,2.23-1.5,3.29-4.21,3.41-4.22.19-8.41,1.27-12.6,2-0.77.14-1.89,0.07-1.88,1.28s0.88,1.31,1.78,1.44c8.6,1.2,11.64,5.76,9.61,14.27a51.06,51.06,0,0,0-1,6.27c-0.06.59-1.45,1.09-.24,1.67a2.22,2.22,0,0,0,1.63-.51c3.13-2.13,6.32-4.19,9.28-6.54,1.74-1.38,2.92-1.25,4.32.29,2.93,3.39,6,6.65,10.06,10.94v0Zm22.24-.05c2.78-1.95,4.8-3.44,6.9-4.81,8.5-5.57,8.63-5.52,16,0,1.88,1.41,4,2.57,5.94,3.85-0.46-2.38-1-4.75-1.35-7.15-0.6-4.52-4.68-9.57,1.9-13.11a18.48,18.48,0,0,0,3.68-2.8c1.41-1.31,2.67-2.78,4-4.18-2-.28-3.94-0.7-5.92-0.8-9.61-.5-9.57-0.48-12.46-9.71a57.13,57.13,0,0,0-2.42-5.64c-1,1.75-2,3.46-2.94,5.25-2.66,5.29-4.21,11.72-12.19,11.32a40.88,40.88,0,0,0-5.46.27,7.1,7.1,0,0,0-1.65.56,9.54,9.54,0,0,0,1,1.3c2.94,2.57,5.8,5.25,8.9,7.6a3.49,3.49,0,0,1,1.28,4.7c-1.65,4.21-3.29,8.37-5.27,13.38v0ZM247.74,144c3.58,2.72,7.14,5.49,10.76,8.15,1.1,0.81,1.83,1.6,1.36,3-0.86,2.6-1.81,5.18-2.57,7.81-0.71,2.44-1.22,4.93-1.82,7.39,2.4-.37,4.11-2.08,5.72-3.52,6-5.35,11.84-6.59,18.29-.84,1.21,1.08,3,1.52,4.51,2.26,0.5-1.92-.5-3.58-1-5.29-2.56-8.47-1.66-12.11,4.77-16.65a24.7,24.7,0,0,0,4-3.68,9,9,0,0,0,1-1.76,12.79,12.79,0,0,0-2-.12c-4.13.4-8.26,0.75-12.37,1.31-1.74.24-2.71,0-3.24-1.88-1.13-4-2.48-8-4.15-13.23-3.61,12.36-10.26,19.13-23.28,17.07Zm211.32,57.51c-1.41.89-3.19-.65-3.79,0.8-0.26.63,1.25,2.15,2.15,3.07a73.89,73.89,0,0,0,6.13,5.77,4.34,4.34,0,0,1,1.62,5.12c-0.9,3-1.74,6.1-2.61,9.16-0.26.9-.91,2.48-0.71,2.6,1.1,0.64,1.92-.45,2.79-1,10.79-6.35,10.79-6.36,20.52,1,0.82,0.62,1.61,1.29,2.42,1.94a36.46,36.46,0,0,0,.11-3.82,7.74,7.74,0,0,0-.7-2.44c-3-6.9-1.62-12.18,5.33-15.93,2.35-1.26,4.06-3.71,6.06-5.62-2.45-1.64-5.35-1.06-8-1.45-4.89-.71-10.47.26-11.19-7.15-0.17-1.75-.62-5-2.15-5-2,.06-1.65,3.36-2.75,5-1.87,2.79-2.74,6.79-6.33,7.72-2.9.83-6.09,0.24-8.92,0.24h0Zm-285-9.25c2.67-.58,4.34-0.86,4.8-2.94a8.42,8.42,0,0,0,.1-1.18c-2.12.42-2.43,2.65-4.9,4.14v0Z" transform="translate(-62.84 -29.22)"/><path class="c" d="M331.53,264.16c6.49,0,13,.13,19.48-0.06,2.89-.08,3.48,2.33,2.59,3.35-2,2.35-1,4.66-.92,7,0.34,22,.77,44.08.17,66.15-0.41,15.17,1,30.39.29,45.54-0.8,18.5-.53,37-0.6,55.45-0.12,33.32-.39,66.64-0.49,100,0,11.76.06,23.53,0.5,35.29,0.24,6.52-.71,12.86-1.43,19.26a3.52,3.52,0,0,1-2,2.82,81.59,81.59,0,0,0-17.63,13c-1.26,1.21-2.58,1.63-4.09,0-4.35-4.56-9.67-7.89-14.85-11.37a5,5,0,0,1-2.56-4.73q0.5-49.39.7-98.79c0.09-17.14.2-34.29,0-51.43-0.18-20.6-.9-41.2-0.88-61.8,0-23.49-.87-47-0.58-70.48,0.2-15.75,1.2-31.52.49-47.28-0.1-2.14,1.18-1.72,2.33-1.72h19.49v-0.25Z" transform="translate(-62.84 -29.22)"/><path class="c" d="M242.45,264.28c6.38,0,12.75.1,19.13-.05,2.39-.06,2.89.59,3,3,0.58,19.7.05,39.41,0.28,59.1q0.41,35.93.3,71.85c-0.05,25.82.42,51.64,0.55,77.46,0.1,18.46-.36,36.92.12,55.37,0.37,14.2.11,28.38,0.37,42.57,0,2.45-.83,3.37-2.93,2.5-9.74-4.08-20.16-5.53-30.34-7.9-2.31-.54-4.29-2-6.92-1.78-2.06.15-2.81-1.68-2.84-3.83-0.36-25.47-.93-50.94-1.17-76.42-0.18-19.34.41-38.7,0-58-0.43-20.51-.7-41-0.68-61.54q0-40.78-.26-81.56c0-6.1-.4-12.2-0.76-18.3-0.13-2.16.6-2.64,2.69-2.6,6.49,0.15,13,.06,19.49.06v0.08h0Z" transform="translate(-62.84 -29.22)"/><path class="c" d="M397.53,538.32c0-53.69-.1-107.38,0-161.06,0.08-33.09.47-66.18,0.83-99.26,0-4.09,1.08-8.17.24-12.27-0.34-1.63.37-1.77,1.76-1.76,12.86,0.08,25.72,0,38.58.12,5.63,0,3.29,5.45,3.18,7-0.92,13.44-.12,26.87-0.43,40.29-0.71,30.82.11,61.66-1.28,92.49-0.52,11.58,0,23.21-.15,34.82-0.2,14.47-1.23,29-.81,43.41,0.6,20.47-.74,40.9-0.35,61.35,0.13,6.59-.58,13.2-0.83,19.8-0.07,1.79-.84,2.53-2.58,2.91a214.06,214.06,0,0,0-35.47,10.75C397,578.22,396,577.6,396,574c0.18-11.89.07-23.78,0.07-35.66h1.43Z" transform="translate(-62.84 -29.22)"/><path class="c" d="M133.27,511.8c0-19.75.73-39.62-.15-59.42-1.75-39.3-.45-78.65-2.16-117.93-0.67-15.44-.31-30.87-0.57-46.3-0.11-6.71-.23-13.42-0.54-20.12-0.15-3.34.73-4.59,4.45-4.45,12.6,0.46,25.22.55,37.84,0.61,2.06,0,2.54.39,2.57,2.53q0.67,45.38,1.56,90.75c0.56,32.29,1.34,64.59,1.48,96.89,0,10.23-.24,20.55,0,30.72q0.74,29,1.21,57.93c0.06,4.43-.62,4.71-4.59,2.82-13.71-6.52-26.31-14.78-38.7-23.44C131.64,519.59,134.41,515.38,133.27,511.8Z" transform="translate(-62.84 -29.22)"/><path class="c" d="M510.3,263.8c6.37,0,12.74.07,19.11,0a3.75,3.75,0,0,1,1.75.26c0.67,0.35.87,1.07,0.83,2.43-0.5,16-.47,32.12-1.31,48.15-1.26,24-.55,48-1.13,72-0.59,24.25-1.35,48.51-1.19,72.79,0.13,19.09.62,38.21-.58,57.3a3.88,3.88,0,0,1-1.77,3.35c-10.72,7.3-21.39,14.7-32.16,21.93-2.62,1.76-5.63,2.93-8.37,4.53-1.25.73-1.75,0-2.43-.7s-0.55-1.06.21-1.94c1.63-1.87.89-4.45,0.91-6.7,0.41-34.07.69-68.15,1.08-102.22,0.2-17,1-34.1.77-51.14-0.41-38.86,2-77.66,2.09-116.51,0-2.79,1-3.19,3.42-3.13,6.25,0.14,12.5,0,18.76,0v-0.4h0Z" transform="translate(-62.84 -29.22)"/><path class="c" d="M306.81,168.11c1.38-6.13,2.87-13.09,4.56-20a3.89,3.89,0,0,0-1.5-4.39c-5.12-4.46-10.1-9.07-15.24-13.5-2.67-2.3-.85-2.74,1.13-3.21,5.22-1.23,10.4-3,15.69-3.49,5.92-.57,9-3.67,11.12-8.73,2.25-5.23,5-10.25,7.54-15.34a7.61,7.61,0,0,1,1.4-1.53,8.67,8.67,0,0,1,1.07,1.73c2.27,6.85,4.59,13.68,6.68,20.59,0.78,2.58,2,3.77,4.81,3.87,6.1,0.21,12.19.74,18.27,1.3,1.26,0.11,3.21.61,3.51,1.42,0.4,1.08-1.42,1.75-2.32,2.59-5.14,4.81-10.23,9.69-15.32,14.56-1.2,1.15-.63,2.51-0.31,3.8,1.72,7,3.47,14,5.16,21,0.19,0.8.43,2.06,0,2.44-0.8.74-1.45-.42-2.09-0.86-6.06-4.15-12.86-6.88-19.31-10.26-2.23-1.17-3.84-.06-5.62.94q-8.46,4.74-17,9.39a24.41,24.41,0,0,1-2.29,1v-3.29Z" transform="translate(-62.84 -29.22)"/><path class="c" d="M283,229.27c0.22-5.13,2.3-9.84,3.92-14.54,0.67-1.95.2-2.42-.67-3.31-2.9-3-5.9-5.85-8.82-8.8-1.62-1.64-2.35-3,1.06-2.92a14.15,14.15,0,0,1,1.46-.16c12.12,1.83,16.36-6.49,20-15.53,0.45-1.11,1-1.37,1.56-.14,1.23,2.65,3,5.24,3.46,8,0.9,6,4.07,7.43,9.53,6.41,3.18-.59,6.49-1.12,9.73,0,0.61,0.2,1.62-.51,1.79.55,0.06,0.35-.7.89-1.15,1.26-3.79,3.07-7.5,6.27-11.46,9.11-2.06,1.47-2.54,3-1.87,5.26,1.12,3.86,2.09,7.76,3.06,11.66a7.26,7.26,0,0,1-.09,2.06,6.75,6.75,0,0,1-2-.36c-4.29-2.26-8.73-4.27-12.31-7.72-0.84-.81-2-2.1-3.53-1-4.67,3.29-9.84,5.9-13.74,10.23Z" transform="translate(-62.84 -29.22)"/><path class="c" d="M263.31,201.12a4.77,4.77,0,0,1-.71.76c-0.6.42-1.26,0.77-1.86,1.18-9.11,6.22-9.18,6.68-5.9,17.13,0.92,2.93,2.53,5.81,1.83,9.11-2.57-1.62-5.65-2.78-7.61-4.95-7.42-8.21-13.85-2.69-20.52,1-1.25.69-2.59,1.22-3.88,1.83-0.53-1.62.62-2.78,1.17-4.08,4.87-11.47,4.87-11.46-5.3-20.42-0.81-.71-2.26-1.78-2.11-2.28,0.37-1.21,1.88-.51,2.9-0.66,3.63-.51,7.28-1,10.94-1.23,1.75-.1,2.22-1.06,2.84-2.31,1.73-3.51,3.58-7,5.32-10.46,0.89-1.79,1.57-1.51,2.23.1,1.48,3.62,3.12,7.18,4.38,10.87,0.83,2.42,1.79,3.58,4.67,3.28,3.26-.34,6.6.09,9.9,0.24C262.23,200.23,263.15,199.95,263.31,201.12Z" transform="translate(-62.84 -29.22)"/><path class="c" d="M402,199.36c11.88,0.36,11.89.37,16.43-10.6,0.42-1,.64-2.1,1.07-3.1a6.58,6.58,0,0,1,1-1.34,5.45,5.45,0,0,1,1.07,1.35c1.62,4.5,5.37,8,5.54,13.29,0.1,3.21,4.29-.12,6,2.11,0.53,0.7,2.31.5,3.53,0.62,1.9,0.18,4.76-.24,5.3,1.24s-2.21,2.92-3.74,3.41c-7.44,2.38-8.44,7.34-6.21,13.9a11.57,11.57,0,0,1,.55,2.51c0.13,1.28.14,2.57,0.2,3.86a27.79,27.79,0,0,1-3.49-1.79c-8.58-6-8.55-6-17.55-.42-2.36,1.46-4.88,2.68-7.32,4-0.37-3,1.45-5.34,2.32-7.93,2.88-8.55,3-8.51-4-13.94-0.87-.67-1.78-1.3-2.61-2-1.51-1.32-4.76-2.7-4.16-3.91C396.67,198.9,399.75,199.3,402,199.36Z" transform="translate(-62.84 -29.22)"/><path class="c" d="M504.43,170.7c-3.35-2.22-6.72-3.61-8.87-6.06-4.94-5.66-9.06-1.78-13.33.51-2.63,1.41-5,3.25-8.27,5.39,1.27-4.65,2.22-8.51,3.4-12.3,1.06-3.37.66-5.71-2.63-7.93-2.67-1.81-5.68-3.71-7.14-7,3.1-.38,6.2-0.94,9.31-1.12,7.77-.45,7.76-0.39,10.35-10.47,0.5-2,1.19-3.89,1.79-5.84,2,1.13,2.78,3.3,3.93,5.11a14.56,14.56,0,0,1,1.75,3.6c2.27,7.69,2.68,7.92,10.61,6.95a35,35,0,0,1,6,.26,6.51,6.51,0,0,1-3.48,4.07c-8.75,4.63-6.9,11.77-4.88,19C503.43,166.7,503.85,168.44,504.43,170.7Z" transform="translate(-62.84 -29.22)"/><path class="c" d="M361.82,182.27c0.93,3.38,2.08,6,2.33,8.79,0.59,6.65,4.34,9.15,10.58,9.24a71.61,71.61,0,0,1,7.82.94,56,56,0,0,1-6,5.24c-5.31,3.48-6.86,7.67-3.38,13.31a15.2,15.2,0,0,1,1.31,3.42c0.57,1.81,1.77,3.46,1.43,5.51-2.17-1-4.79-1.6-6.4-3.2-2.19-2.19-4.84-3.67-7.1-5.7-1.16-1-2.19-.59-3.34,0-3.53,2-7.09,3.85-10.65,5.74a20.35,20.35,0,0,1-2,.84,5.45,5.45,0,0,1,.15-2.05c5.39-10.4.45-17.07-8-22.5a8.22,8.22,0,0,1-1.4-1.5,9.37,9.37,0,0,1,2-.46c4.4,0,8.8-.11,13.2,0,1.79,0,2.55-.46,3.55-2.16C358.64,193.16,358.9,187.73,361.82,182.27Z" transform="translate(-62.84 -29.22)"/><path class="c" d="M167.39,227.58c1.42-3.82,2.37-6.56,3.45-9.24,1.7-4.21,2.34-8-2.11-11.22a44.86,44.86,0,0,1-6-5.89c-0.52-.55-1.87-0.86-1.27-1.85,0.27-.44,1.57-0.47,2.33-0.33,10.17,1.83,16.48-2.09,18.75-12.31a13.29,13.29,0,0,1,1.63-3.1c1.21,0.88,1,2.32,1.41,3.53,0.84,2.81,1.65,5.62,2.34,8.47,0.39,1.6,1.25,2.11,2.86,2.13,4.64,0.07,9.28.3,13.91,0.47,0.82,0,1.9-.29,2.22.7,0.1,0.31-.84,1-1.38,1.47-2.38,1.91-4.58,4.22-7.25,5.58-5.42,2.76-5.49,6.77-3.42,11.49A30.51,30.51,0,0,1,197.1,228c-3.43-1.05-6.06-3.38-8.86-5.48-6.77-5.09-8.79-4.89-15,.9A59.85,59.85,0,0,1,167.39,227.58Z" transform="translate(-62.84 -29.22)"/><path class="c" d="M234,171.62c-2.57-2-5.29-3.57-7.34-5.78-4-4.27-7.79-4.55-12.12-.75a11.56,11.56,0,0,1-3.18,1.81c-1.94.81-3.33,2.77-5.67,2.73,0.54-2,.65-4.2,1.69-5.86,5.42-8.61-.72-13-6.16-17.7-0.87-.76-2.39-1.38-2-2.71,0.14-.48,1.94-0.78,2.93-0.67,9.18,1,15.4-2.65,18.83-11.32,0.77-1.94,2.45-2.36,3.3.35,0.33,1,.82,2,1.16,3.08,2.9,8.69,2.89,8.66,12.32,8.19,1.77-.09,3.55.13,5.32,0.21-0.36,2.28-2.6,2.7-4,3.91-1.92,1.65-4.08,3-6.11,4.53-1.74,1.3-3.08,2.46-1.4,5,2.37,3.63,2.16,8.17,3.42,12.22a2,2,0,0,1-.85,2.7Z" transform="translate(-62.84 -29.22)"/><path class="c" d="M157,166.54a23.18,23.18,0,0,1,1.49-4.15c5.51-8.71,2.25-14.93-5.45-20-0.72-.48-2-0.89-1.67-2.06,0.06-.25,1.57,0,2.3-0.26a37.46,37.46,0,0,1,11.39-2.13c3.55-.24,3.06-5.55,4.65-8.46,1.27-2.32.44-6.64,3.8-6.57,1.53,0,1.67,4.54,1.93,7.17,0.2,2.06.74,4.09,0.95,6.16s1.16,2.83,3.26,3c4,0.39,8,1.14,11.92,1.79a9.28,9.28,0,0,1,1.87.74,6.86,6.86,0,0,1-1.22,1.64c-2.07,1.5-4,3.43-6.38,4.24-4.82,1.65-4.41,5.07-3,8.33,1.32,3,1.5,6,1.79,9.06,0.1,1.06,1.33,2.69-.27,3.21-0.79.25-2.14-.92-3.11-1.62-1.29-.92-2.81-1.78-3.62-3.06-4.82-7.62-9.75-3.41-14.74-.34C161.19,164.31,159.35,165.24,157,166.54Z" transform="translate(-62.84 -29.22)"/><path class="c" d="M400.83,172.09c-4-4.33-7.12-7.55-10.13-10.84-1.4-1.53-2.59-1.66-4.32-.29-3,2.35-6.15,4.41-9.28,6.54a2.22,2.22,0,0,1-1.63.51c-1.2-.59.18-1.09,0.24-1.67a51.06,51.06,0,0,1,1-6.27c2-8.5-1-13.07-9.61-14.27-0.9-.13-1.78-0.34-1.78-1.44s1.12-1.15,1.88-1.28c4.19-.76,8.38-1.84,12.6-2,2.71-.12,3.5-1.18,4.21-3.41,1.19-3.7,2.7-7.3,4.12-10.92a9.71,9.71,0,0,1,1.12-1.71,10.56,10.56,0,0,1,1.24,1.74c0.8,1.78,2,3.57,2.12,5.42,0.23,2.91,3.17,4.76,2.54,8-0.28,1.47,1,2.11,2.74,2,4-.34,8-0.42,12.07-0.55a5.87,5.87,0,0,1,1.61.42,6.82,6.82,0,0,1-1,1.39c-3.64,3.2-7.31,6.37-11,9.55a3.48,3.48,0,0,0-1.12,3.59C399.3,161.1,399.89,165.7,400.83,172.09Z" transform="translate(-62.84 -29.22)"/><path class="c" d="M423.07,172c2-5,3.63-9.17,5.29-13.32a3.49,3.49,0,0,0-1.28-4.7c-3.11-2.35-6-5-8.9-7.6a9.54,9.54,0,0,1-1-1.3,7.1,7.1,0,0,1,1.65-.56,40.88,40.88,0,0,1,5.46-.27c8,0.4,9.53-6,12.19-11.32,0.9-1.79,2-3.5,2.94-5.25a57.13,57.13,0,0,1,2.42,5.64c2.88,9.23,2.85,9.21,12.46,9.71,2,0.1,4,.53,5.92.8-1.33,1.4-2.58,2.87-4,4.18a18.48,18.48,0,0,1-3.68,2.8c-6.58,3.54-2.5,8.59-1.9,13.11,0.32,2.4.89,4.77,1.35,7.15-2-1.28-4.06-2.43-5.94-3.85-7.41-5.56-7.54-5.6-16,0C427.87,168.6,425.85,170.09,423.07,172Z" transform="translate(-62.84 -29.22)"/><path class="c" d="M247.72,144c13,2.06,19.67-4.71,23.19-17,1.67,5.27,3,9.22,4.15,13.23,0.53,1.89,1.5,2.11,3.24,1.88,4.11-.56,8.24-0.91,12.37-1.31a12.79,12.79,0,0,1,2,.12,9,9,0,0,1-1,1.76,24.7,24.7,0,0,1-4,3.68c-6.43,4.53-7.33,8.18-4.77,16.65,0.52,1.71,1.52,3.37,1,5.29-1.52-.74-3.3-1.18-4.51-2.26-6.45-5.75-12.32-4.51-18.29.84-1.61,1.45-3.33,3.16-5.72,3.52,0.6-2.47,1.12-5,1.82-7.39,0.76-2.63,1.71-5.21,2.57-7.81,0.47-1.42-.26-2.21-1.36-3C254.86,149.51,251.3,146.8,247.72,144Z" transform="translate(-62.84 -29.22)"/><path class="c" d="M459,201.53c2.83,0,6,.59,8.86-0.15,3.59-.93,4.46-4.93,6.33-7.72,1.1-1.64.78-4.94,2.75-5,1.53,0,2,3.21,2.15,5,0.72,7.41,6.3,6.44,11.19,7.15,2.67,0.39,5.57-.19,8,1.45-2,1.91-3.71,4.35-6.06,5.62-7,3.75-8.29,9-5.33,15.93a7.74,7.74,0,0,1,.7,2.44,36.46,36.46,0,0,1-.11,3.82c-0.8-.65-1.59-1.32-2.42-1.94-9.73-7.38-9.72-7.36-20.52-1-0.87.51-1.69,1.6-2.79,1-0.2-.12.46-1.69,0.71-2.6,0.87-3.05,1.71-6.11,2.61-9.16a4.34,4.34,0,0,0-1.62-5.12,73.89,73.89,0,0,1-6.13-5.77c-0.9-.92-2.41-2.44-2.15-3.07C455.85,200.88,457.62,202.42,459,201.53Z" transform="translate(-62.84 -29.22)"/><path class="c" d="M174.06,192.29c2.43-1.46,2.78-3.72,4.9-4.12a8.42,8.42,0,0,1-.1,1.18C178.4,191.42,176.73,191.7,174.06,192.29Z" transform="translate(-62.84 -29.22)"/><path class="c" d="M283,229.29l-0.22-.11,0.26,0.08Z" transform="translate(-62.84 -29.22)"/></svg>