<?xml version="1.0" encoding="iso-8859-1"?>
<!-- Generator: Adobe Illustrator 19.0.0, SVG Export Plug-In . SVG Version: 6.00 Build 0)  -->
<svg version="1.1" id="Layer_1" xmlns="http://www.w3.org/2000/svg" xmlns:xlink="http://www.w3.org/1999/xlink" x="0px" y="0px"
	 viewBox="0 0 512 512" style="enable-background:new 0 0 512 512;" xml:space="preserve">
<g>
	<g>
		<path d="M469.333,448h-10.667v-10.667c0-5.888-4.779-10.667-10.667-10.667h-32V320h10.667c17.643,0,32-14.357,32-32
			s-14.357-32-32-32h-11.2c-4.843-72.832-58.432-132.459-128.469-146.261c-2.581-10.475-10.283-18.859-20.331-22.443V64H320
			c4.309,0,8.213-2.603,9.856-6.592c1.664-3.989,0.747-8.576-2.304-11.627L313.771,32l13.781-13.781
			c3.051-3.051,3.968-7.637,2.304-11.627C328.213,2.603,324.309,0,320,0h-64c-5.888,0-10.667,4.779-10.667,10.667v76.629
			c-10.048,3.584-17.749,11.968-20.331,22.443C154.965,123.541,101.376,183.168,96.533,256h-11.2c-17.643,0-32,14.357-32,32
			s14.357,32,32,32H96v106.667H64c-5.888,0-10.667,4.779-10.667,10.667V448H42.667c-17.643,0-32,14.357-32,32v21.333
			c0,5.888,4.779,10.667,10.667,10.667h469.333c5.888,0,10.667-4.779,10.667-10.667V480C501.333,462.357,486.976,448,469.333,448z
			 M266.667,21.355h27.584l-3.115,3.115c-4.16,4.16-4.16,10.923,0,15.083l3.115,3.115h-27.584V21.355z M256,128
			c72.875,0,132.8,56.491,138.261,128H117.739C123.2,184.491,183.125,128,256,128z M85.333,298.667
			c-5.888,0-10.667-4.8-10.667-10.667s4.779-10.667,10.667-10.667h341.333c5.888,0,10.667,4.8,10.667,10.667
			s-4.779,10.667-10.667,10.667H85.333z M394.667,320v106.667h-21.333V320H394.667z M352,320v106.667h-21.333V320H352z M309.333,320
			v106.667H288V320H309.333z M266.667,320v106.667h-21.333V320H266.667z M224,320v106.667h-21.333V320H224z M181.333,320v106.667
			H160V320H181.333z M138.667,320v106.667h-21.333V320H138.667z M480,490.667H32V480c0-5.867,4.779-10.667,10.667-10.667H64
			c5.888,0,10.667-4.779,10.667-10.667V448h362.667v10.667c0,5.888,4.779,10.667,10.667,10.667h21.333
			c5.888,0,10.667,4.8,10.667,10.667V490.667z"/>
	</g>
</g>
<g>
</g>
<g>
</g>
<g>
</g>
<g>
</g>
<g>
</g>
<g>
</g>
<g>
</g>
<g>
</g>
<g>
</g>
<g>
</g>
<g>
</g>
<g>
</g>
<g>
</g>
<g>
</g>
<g>
</g>
</svg>
